<svg height="495pt" viewBox="-70 0 495 495.80375" width="495pt" xmlns="http://www.w3.org/2000/svg" xmlns:xlink="http://www.w3.org/1999/xlink"><linearGradient id="a"><stop offset="0" stop-color="#003f8a"/><stop offset=".518" stop-color="#00d7df"/><stop offset="1" stop-color="#006df0"/></linearGradient><linearGradient id="b" gradientUnits="userSpaceOnUse" x1="-156.644319" x2="494.059681" xlink:href="#a" y1="510.968" y2="-139.736"/><linearGradient id="c" gradientUnits="userSpaceOnUse" x1="-86.644319" x2="564.059681" xlink:href="#a" y1="580.968" y2="-69.736"/><linearGradient id="d" gradientUnits="userSpaceOnUse" x1="-58.644319" x2="592.059681" xlink:href="#a" y1="608.968" y2="-41.736"/><linearGradient id="e" gradientUnits="userSpaceOnUse" x1="-30.644319" x2="620.059681" xlink:href="#a" y1="636.968" y2="-13.736"/><linearGradient id="f" gradientUnits="userSpaceOnUse" x1="-138.124319" x2="512.579681" xlink:href="#a" y1="529.488" y2="-121.216"/><linearGradient id="g" gradientUnits="userSpaceOnUse" x1="-160.644319" x2="490.059681" xlink:href="#a" y1="506.968" y2="-143.736"/><path d="m173.058594 97.976562-64 56c-2.507813 2.191407-3.394532 5.714844-2.222656 8.835938 1.167968 3.121094 4.152343 5.1875 7.488281 5.1875h16v48c0 4.417969 3.582031 8 8 8h80c4.417969 0 8-3.582031 8-8v-48h16c3.332031 0 6.316406-2.066406 7.488281-5.1875s.285156-6.644531-2.226562-8.835938l-64-56c-3.011719-2.636718-7.511719-2.636718-10.527344 0zm37.265625 110.023438h-64v-40h64zm-74.710938-56 42.710938-37.367188 42.710937 37.367188zm0 0" fill="url(#b)"/><path d="m178.324219 296c-4.417969 0-8 3.582031-8 8v24c0 4.417969 3.582031 8 8 8s8-3.582031 8-8v-24c0-4.417969-3.582031-8-8-8zm0 0" fill="url(#c)"/><path d="m178.324219 352c-4.417969 0-8 3.582031-8 8v24c0 4.417969 3.582031 8 8 8s8-3.582031 8-8v-24c0-4.417969-3.582031-8-8-8zm0 0" fill="url(#d)"/><path d="m178.324219 408c-4.417969 0-8 3.582031-8 8v24c0 4.417969 3.582031 8 8 8s8-3.582031 8-8v-24c0-4.417969-3.582031-8-8-8zm0 0" fill="url(#e)"/><path d="m178.324219 0c-98.78125.703125-178.3632815 81.214844-177.921875 180 0 96.671875 164.664062 304 171.671875 312.800781 1.519531 1.898438 3.820312 3.003907 6.25 3.003907 2.429687 0 4.730469-1.105469 6.246093-3.003907 7.007813-8.800781 171.671876-216.144531 171.671876-312.800781.445312-98.785156-79.136719-179.296875-177.917969-180zm0 474.769531c-30.496094-39.378906-161.921875-213.839843-161.921875-294.769531-.820313-58.390625 29.863281-112.699219 80.296875-142.136719 50.4375-29.433593 112.8125-29.433593 163.25 0 50.433593 29.4375 81.117187 83.746094 80.292969 142.136719 0 80.929688-131.421876 255.390625-161.917969 294.769531zm0 0" fill="url(#f)"/><path d="m178.324219 56c-61.855469 0-112 50.144531-112 112s50.144531 112 112 112 112-50.144531 112-112c-.066407-61.828125-50.171875-111.933594-112-112zm0 208c-53.019531 0-96-42.980469-96-96s42.980469-96 96-96 96 42.980469 96 96c-.058594 52.996094-43.003907 95.941406-96 96zm0 0" fill="url(#g)"/></svg>